<svg id="Icons" height="512" viewBox="0 0 60 60" width="512" xmlns="http://www.w3.org/2000/svg"><circle cx="30" cy="4" fill="#ffeb3a" r="3"/><path d="m32 6.23v46.77h-4v-46.77a2.982 2.982 0 0 0 4 0z" fill="#ffdf00"/><path d="m21 53h18a4 4 0 0 1 4 4v1a1 1 0 0 1 -1 1h-24a1 1 0 0 1 -1-1v-1a4 4 0 0 1 4-4z" fill="#ffeb3a"/><path d="m39 53h-3a4 4 0 0 1 4 4v1a1 1 0 0 1 -1 1h3a1 1 0 0 0 1-1v-1a4 4 0 0 0 -4-4z" fill="#fdd834"/><path d="m28 9h-22a2 2 0 0 0 -2 2 2 2 0 0 0 2 2h22z" fill="#ff9801"/><path d="m32 9h22a2 2 0 0 1 2 2 2 2 0 0 1 -2 2h-22z" fill="#ff9801"/><path d="m54 9h-3a2 2 0 0 1 0 4h3a2 2 0 0 0 0-4z" fill="#f57c00"/><circle cx="12" cy="35" fill="#a4c400" r="11"/><path d="m12 24a11.078 11.078 0 0 0 -1.5.114 10.987 10.987 0 0 1 0 21.772 10.995 10.995 0 1 0 1.5-21.886z" fill="#90ac00"/><path d="m59 35a11 11 0 1 1 -11-11 11 11 0 0 1 11 11z" fill="#ff9801"/><path d="m48 24a11.025 11.025 0 0 0 -1.519.117 10.984 10.984 0 0 1 .019 21.769 10.995 10.995 0 1 0 1.5-21.886z" fill="#f57c00"/><path d="m55.01 25.36c-.27.16-.55.34-.83.54a10.892 10.892 0 0 0 -5.04-1.84 6.89 6.89 0 0 1 3-3.91.85.85 0 0 1 1.31.54c.3 1.6 1.45 2.28 1.55 4.48 0 .06.01.13.01.19z" fill="#60a917"/><path d="m55.905 26a10.905 10.905 0 0 1 2.34-1.025 1 1 0 0 0 -.488-1.94 11.372 11.372 0 0 0 -1.968.763 8.121 8.121 0 0 0 -.775-1.873 4.784 4.784 0 0 1 -.583-1.426 1.838 1.838 0 0 0 -1.948-1.48l-2.783-5.019h4.3a3 3 0 0 0 0-6h-21v-1.382a4 4 0 1 0 -6 0v1.382h-21a3 3 0 0 0 0 6h4.3l-7.21 12.99a11.992 11.992 0 1 0 20.91 8.01 11.938 11.938 0 0 0 -3.09-8.01l-7.21-12.99h13.3v38h-6a5.006 5.006 0 0 0 -5 5v1a2 2 0 0 0 2 2h24a2 2 0 0 0 2-2v-1a5.006 5.006 0 0 0 -5-5h-6v-38h13.3l-7.21 12.99a12 12 0 1 0 16.815-.99zm-43.905-10.939 5.028 9.058a11.856 11.856 0 0 0 -10.056 0zm0 29.939a10 10 0 1 1 10-10 10.011 10.011 0 0 1 -10 10zm18-43a2 2 0 1 1 -2 2 2 2 0 0 1 2-2zm-24 10a1 1 0 0 1 0-2h21v2zm36 45v1h-24v-1a3 3 0 0 1 3-3h18a3 3 0 0 1 3 3zm-13-5v-44.142a3.592 3.592 0 0 0 2 0v44.142zm4-42h21a1 1 0 0 1 0 2h-21zm20.928 14.58a11.909 11.909 0 0 0 -3.422-1.312 6.525 6.525 0 0 1 2.01-2.163 7.058 7.058 0 0 0 .738 1.765 5.482 5.482 0 0 1 .674 1.71zm-5.507-1.559c-.141-.005-.279-.021-.421-.021a11.9 11.9 0 0 0 -5.028 1.119l5.028-9.059 2.723 4.9a7.658 7.658 0 0 0 -2.302 3.061zm-.421 21.979a10 10 0 1 1 4.4-18.966 15.261 15.261 0 0 0 -1.13 1.09 1 1 0 1 0 1.46 1.366 13.369 13.369 0 0 1 1.451-1.335 9.989 9.989 0 0 1 -6.181 17.845z"/><circle cx="45" cy="29" r="1"/><circle cx="41" cy="33" r="1"/><circle cx="45" cy="33" r="1"/><path d="m12 30a2 2 0 0 1 2 2 1 1 0 0 0 2 0 4 4 0 0 0 -3-3.858v-.142a1 1 0 0 0 -2 0v.142a3.992 3.992 0 0 0 1 7.858 2 2 0 1 1 -2 2 1 1 0 0 0 -2 0 4 4 0 0 0 3 3.858v.142a1 1 0 0 0 2 0v-.142a3.992 3.992 0 0 0 -1-7.858 2 2 0 0 1 0-4z"/></svg>