<svg id="Icons" height="512" viewBox="0 0 60 60" width="512" xmlns="http://www.w3.org/2000/svg"><path d="m59 34a2.015 2.015 0 0 1 -2 2h-54a2.006 2.006 0 0 1 -2-2 1.955 1.955 0 0 1 .59-1.41 1.955 1.955 0 0 1 1.41-.59h54a2.006 2.006 0 0 1 2 2z" fill="#607d8b"/><path d="m57 32h-3a2.006 2.006 0 0 1 2 2 2.015 2.015 0 0 1 -2 2h3a2.015 2.015 0 0 0 2-2 2.006 2.006 0 0 0 -2-2z" fill="#37474f"/><path d="m57 36-3.42 19.69a4.01 4.01 0 0 1 -3.94 3.31h-39.28a4.01 4.01 0 0 1 -3.94-3.31l-3.42-19.69z" fill="#607d8b"/><path d="m54 36-3.42 19.69a4.01 4.01 0 0 1 -3.94 3.31h3a4.01 4.01 0 0 0 3.94-3.31l3.42-19.69z" fill="#37474f"/><path d="m56 28a8.224 8.224 0 0 1 -1.08 4h-49.84a8.224 8.224 0 0 1 -1.08-4c0-3.99 3.1-7.59 8.08-10.14.25 4.13 1.02 7.14 1.92 7.14 1.02 0 1.86-3.84 1.98-8.79a38.087 38.087 0 0 1 4.03-1.14c.11 5.02.96 8.93 1.99 8.93 1.07 0 1.96-4.27 2-9.62 1.3-.17 2.64-.28 4.01-.34.11 5.03.96 8.96 1.99 8.96s1.88-3.93 1.99-8.96c1.37.06 2.71.17 4.01.34.04 5.35.93 9.62 2 9.62 1.03 0 1.88-3.91 1.99-8.93a38.087 38.087 0 0 1 4.03 1.14c.12 4.95.96 8.79 1.98 8.79.9 0 1.67-3.01 1.92-7.14 4.98 2.55 8.08 6.15 8.08 10.14z" fill="#ff9801"/><g fill="#f57c00"><path d="m47.92 17.86q-.055.906-.143 1.731c3.277 2.342 5.223 5.252 5.223 8.409a8.224 8.224 0 0 1 -1.08 4h3a8.224 8.224 0 0 0 1.08-4c0-3.99-3.1-7.59-8.08-10.14z"/><path d="m47.92 17.86c-.25 4.13-1.02 7.14-1.92 7.14-1.02 0-1.86-3.84-1.98-8.79a29.677 29.677 0 0 1 3.9 1.65z"/><path d="m39.99 15.07c-.11 5.02-.96 8.93-1.99 8.93-1.07 0-1.96-4.27-2-9.62a40.416 40.416 0 0 1 3.99.69z"/><path d="m31.99 14.04c-.11 5.03-.96 8.96-1.99 8.96s-1.88-3.93-1.99-8.96c.66-.03 1.32-.04 1.99-.04s1.33.01 1.99.04z"/><path d="m24 14.38c-.04 5.35-.93 9.62-2 9.62-1.03 0-1.88-3.91-1.99-8.93a40.416 40.416 0 0 1 3.99-.69z"/><path d="m15.98 16.21c-.12 4.95-.96 8.79-1.98 8.79-.9 0-1.67-3.01-1.92-7.14a29.677 29.677 0 0 1 3.9-1.65z"/></g><path d="m57 31h-.546a8.861 8.861 0 0 0 .546-3c0-8.411-11.859-15-27-15s-27 6.589-27 15a8.861 8.861 0 0 0 .546 3h-.546a2.991 2.991 0 0 0 -.866 5.857l3.3 19a4.99 4.99 0 0 0 4.93 4.143h39.272a4.99 4.99 0 0 0 4.926-4.144l3.3-19a2.991 2.991 0 0 0 -.862-5.856zm-10.124-12.581a20.258 20.258 0 0 1 -.876 5.069 21.929 21.929 0 0 1 -.922-5.849q.934.368 1.798.78zm-7.915-2.552a23.632 23.632 0 0 1 -.961 6.633 24.766 24.766 0 0 1 -.973-6.973q.985.149 1.934.34zm-8.007-.854a23.394 23.394 0 0 1 -.954 6.479 23.394 23.394 0 0 1 -.954-6.479c.317-.007.634-.013.954-.013s.637.006.954.013zm-7.98.513a24.766 24.766 0 0 1 -.974 6.974 23.632 23.632 0 0 1 -.962-6.632q.951-.191 1.936-.342zm-8.051 2.113a21.929 21.929 0 0 1 -.923 5.849 20.258 20.258 0 0 1 -.877-5.069q.864-.413 1.8-.78zm-9.923 10.361c0-3.274 2.345-6.267 6.2-8.555.411 4.347 1.35 6.555 2.8 6.555 2.244 0 2.824-5.408 2.96-9.086q1.014-.324 2.092-.6c.164 3.701.785 8.686 2.948 8.686 2.419 0 2.9-6.242 2.985-9.737.676-.072 1.364-.126 2.058-.169.157 3.728.757 8.906 2.957 8.906s2.805-5.178 2.957-8.906c.694.043 1.382.1 2.058.169.085 3.495.566 9.737 2.985 9.737 2.163 0 2.784-4.985 2.948-8.684q1.077.273 2.092.6c.136 3.676.716 9.084 2.96 9.084 1.45 0 2.389-2.208 2.8-6.555 3.855 2.288 6.2 5.281 6.2 8.555a7.067 7.067 0 0 1 -.7 3h-48.6a7.067 7.067 0 0 1 -.7-3zm47.591 27.515a2.993 2.993 0 0 1 -2.955 2.485h-39.272a2.993 2.993 0 0 1 -2.955-2.485l-3.22-18.515h51.622zm4.409-20.515h-54a1 1 0 0 1 0-2h54a1 1 0 0 1 0 2z"/><path d="m32 1a1 1 0 0 0 -2 0 2.11 2.11 0 0 1 -.747 1.586 4.015 4.015 0 0 0 0 5.828 2.11 2.11 0 0 1 .747 1.586 1 1 0 0 0 2 0 4.045 4.045 0 0 0 -1.253-2.914 2.057 2.057 0 0 1 0-3.172 4.045 4.045 0 0 0 1.253-2.914z"/><path d="m23 2a1 1 0 0 0 -2 0 2.11 2.11 0 0 1 -.747 1.586 4.015 4.015 0 0 0 0 5.828 2.11 2.11 0 0 1 .747 1.586 1 1 0 0 0 2 0 4.045 4.045 0 0 0 -1.253-2.914 2.057 2.057 0 0 1 0-3.172 4.045 4.045 0 0 0 1.253-2.914z"/><path d="m41 2a1 1 0 0 0 -2 0 2.11 2.11 0 0 1 -.747 1.586 4.015 4.015 0 0 0 0 5.828 2.11 2.11 0 0 1 .747 1.586 1 1 0 0 0 2 0 4.045 4.045 0 0 0 -1.253-2.914 2.057 2.057 0 0 1 0-3.172 4.045 4.045 0 0 0 1.253-2.914z"/></svg>