<svg width="164" height="160" viewBox="0 0 164 160" fill="none" xmlns="http://www.w3.org/2000/svg">
<path d="M44.0001 91C44.7247 90.9256 45.5203 91.4791 45.0001 92C36.1368 100.873 7.23164 124.36 25.0001 137C42.3643 149.347 55.2558 123.66 70.0001 119C71.5702 118.507 71.6969 119.512 71.0001 121C67.6833 128.143 63.0072 137.634 65.0001 145C67.634 154.766 79.1401 155.893 87.0001 152C97.9398 146.573 103.105 128.994 109 118C109.069 117.873 108.883 118.084 109 118C109.117 117.916 109.858 118.025 110 118C110.142 117.975 109.861 117.961 110 118C110.139 118.039 110.892 117.905 111 118C118.748 124.767 127.241 129.414 138 127C146.64 125.061 149.613 117.259 149 109C148.182 98.1363 143.393 89.4829 134 83C131.287 81.1305 130.981 79.3208 134 78C143.658 73.7727 163.87 65.998 157 51C149.67 35.0533 120.191 39.9031 109 46C106.241 47.5068 104.851 47.1438 105 44C105.474 33.8851 107.369 19.371 101 11C94.91 2.97781 85.031 5.03362 80.0001 13C75.3036 20.4362 74.5157 31.3779 74.0001 40C73.9722 40.3628 73.511 40.7489 73.0001 41C72.8243 41.0866 73.207 41.0425 73.0001 41C72.7931 40.9576 72.1631 41.1561 72.0001 41C62.7187 32.057 39.7308 15.2901 29.0001 28C18.6038 40.3054 27.5895 54.1456 34.0001 65C34.0417 65.0694 33.9942 64.9193 34.0001 65C34.0059 65.0808 34.0313 64.9253 34.0001 65C33.9689 65.0747 34.0616 65.9475 34.0001 66C33.9385 66.0526 34.0786 65.9809 34.0001 66C24.649 68.2881 11.1669 71.9405 7.00005 79C5.04901 82.2926 4.49496 85.0702 6.00005 88C11.5745 98.8265 34.9277 91.9208 44.0001 91Z" stroke="white" stroke-width="10"/>
<path d="M47 64.0026C47 63.6048 47.2813 62.2839 47 62.0026C46.7187 61.7213 46.3978 62.0026 46 62.0026C45.6022 62.0026 44.2813 61.7213 44 62.0026C43.7187 62.2839 44 63.6048 44 64.0026C44 64.4004 43.7187 64.7213 44 65.0026C44.2813 65.2839 45.6022 65.0026 46 65.0026C46.3978 65.0026 46.7187 65.2839 47 65.0026C47.2813 64.7213 47 64.4004 47 64.0026Z" stroke="#FC6453" stroke-width="2"/>
<path d="M105 75.0026C105.302 74.6247 105.885 73.4914 106 73.0026C106.115 72.5139 106.09 72.5278 106 72.0026C105.91 71.4774 105.281 70.4843 105 70.0026C104.719 69.5209 104.43 69.3675 104 69.0026C103.132 68.2658 102.045 67.984 101 68.0026C99.9548 68.0213 99.6106 68.2394 99 69.0026C98.6976 69.3805 98.1149 70.5139 98 71.0026C97.885 71.4914 97.91 71.4774 98 72.0026C98.0899 72.5278 98.7188 73.5209 99 74.0026C99.2811 74.4843 99.5704 74.6378 100 75.0026C100.867 75.7395 101.955 76.0213 103 76.0026C104.045 75.984 104.389 75.7658 105 75.0026Z" stroke="#99382D" stroke-width="2"/>
<path d="M71.0002 72.0026C70.9244 71.4856 70.2691 71.4447 70.0002 71.0026C69.7312 70.5606 69.4213 70.3024 69.0002 70.0026C68.579 69.7028 68.5094 69.1145 68.0002 69.0026C67.4909 68.8907 66.52 68.9096 66.0002 69.0026C64.9504 69.1904 64.6342 70.1315 64.0002 71.0026C63.3661 71.8737 62.8471 72.9585 63.0002 74.0026C63.076 74.5196 63.7312 74.5606 64.0002 75.0026C64.2691 75.4447 64.579 75.7028 65.0002 76.0026C65.4213 76.3024 65.4909 76.8907 66.0002 77.0026C66.5094 77.1145 67.4804 77.0956 68.0002 77.0026C69.0499 76.8148 69.3661 75.8737 70.0002 75.0026C70.6342 74.1315 71.1532 73.0467 71.0002 72.0026Z" stroke="#99382D" stroke-width="2"/>
<path d="M72 97.0026C73.0472 97.1579 74.1395 96.7295 75 96.0026C75.8605 95.2757 76.8302 94.1859 77 93.0026C77.1697 91.8193 76.6204 90.9492 76 90.0026C75.3795 89.056 75.0472 88.158 74 88.0026C72.9528 87.8473 71.8605 88.2757 71 89.0026C70.1395 89.7295 69.1697 90.8193 69 92.0026C68.8302 93.1859 69.3795 94.056 70 95.0026C70.6204 95.9492 70.9528 96.8473 72 97.0026Z" stroke="#99382D" stroke-width="2"/>
<path d="M100 91.0026C100 90.207 99.5626 89.5652 99 89.0026C98.4374 88.44 97.7956 88.0026 97 88.0026C96.2044 88.0026 95.5626 88.44 95 89.0026C94.4374 89.5652 94 90.207 94 91.0026C94 91.7983 94.4374 92.44 95 93.0026C95.5626 93.5652 96.2044 94.0026 97 94.0026C97.7956 94.0026 98.4374 93.5652 99 93.0026C99.5626 92.44 100 91.7983 100 91.0026Z" stroke="#AD2F28" stroke-width="2"/>
<path d="M44.0001 91.0026C34.9277 91.9234 11.5745 98.8291 6.00005 88.0026C4.49496 85.0728 5.04901 82.2952 7.00005 79.0026C11.1669 71.9431 24.649 68.2907 34.0001 66.0026C34.0786 65.9835 33.9385 66.0552 34.0001 66.0026C34.0616 65.9501 33.9689 65.0773 34.0001 65.0026C34.0313 64.9279 34.0059 65.0834 34.0001 65.0026C33.9942 64.9219 34.0417 65.072 34.0001 65.0026C27.5895 54.1483 18.6038 40.308 29.0001 28.0026C39.7308 15.2927 62.7187 32.0596 72.0001 41.0026C72.1631 41.1587 72.7931 40.9602 73.0001 41.0026C73.207 41.0451 72.8243 41.0892 73.0001 41.0026C73.511 40.7515 73.9722 40.3654 74.0001 40.0026C74.5157 31.3805 75.3036 20.4389 80.0001 13.0026C85.031 5.03624 94.91 2.98044 101 11.0026C107.369 19.3736 105.474 33.8877 105 44.0026C104.851 47.1464 106.241 47.5094 109 46.0026C120.191 39.9058 149.67 35.0559 157 51.0026C163.87 66.0007 143.658 73.7753 134 78.0026C130.981 79.3234 131.287 81.1331 134 83.0026C143.393 89.4855 148.182 98.139 149 109.003C149.613 117.262 146.64 125.063 138 127.003C127.241 129.416 118.748 124.769 111 118.003C110.892 117.908 110.139 118.041 110 118.003C109.861 117.964 110.142 117.977 110 118.003C109.858 118.028 109.117 117.918 109 118.003C108.883 118.087 109.069 117.876 109 118.003C103.105 128.997 97.9398 146.575 87.0001 152.003C79.1401 155.895 67.634 154.769 65.0001 145.003C63.0072 137.636 67.6833 128.146 71.0001 121.003C71.6969 119.514 71.5702 118.51 70.0001 119.003C55.2558 123.662 42.3643 149.35 25.0001 137.003C7.23164 124.362 36.1368 100.876 45.0001 92.0026C45.5203 91.4818 44.7247 90.9282 44.0001 91.0026ZM47.0001 64.0026C47.0001 63.5623 47.3111 63.314 47.0001 63.0026C46.689 62.6913 46.4399 62.0026 46.0001 62.0026C45.5602 62.0026 44.3111 62.6913 44.0001 63.0026C43.689 63.314 44.0001 63.5623 44.0001 64.0026C44.0001 64.443 43.689 64.6913 44.0001 65.0026C44.3111 65.314 45.5602 66.0026 46.0001 66.0026C46.4399 66.0026 46.689 65.314 47.0001 65.0026C47.3111 64.6913 47.0001 64.443 47.0001 64.0026ZM106 75.0026C106.299 74.6393 105.886 74.4725 106 74.0026C106.114 73.5327 106.089 72.5076 106 72.0026C105.911 71.4977 106.278 71.4658 106 71.0026C105.722 70.5395 105.425 69.3534 105 69.0026C104.142 68.2942 103.034 67.9847 102 68.0026C100.966 68.0206 99.6043 69.2689 99.0001 70.0026C98.7009 70.366 99.1138 70.5327 99.0001 71.0026C98.8863 71.4725 97.911 71.4977 98.0001 72.0026C98.0891 72.5076 98.7218 73.5395 99.0001 74.0026C99.2783 74.4658 99.575 74.6519 100 75.0026C100.858 75.7111 101.966 76.0206 103 76.0026C104.034 75.9847 105.396 75.7364 106 75.0026ZM72.0001 72.0026C71.9208 71.5125 71.2814 70.4217 71.0001 70.0026C70.7187 69.5836 70.4406 69.2869 70.0001 69.0026C69.5595 68.7184 69.5328 69.1087 69.0001 69.0026C68.4673 68.8965 67.5438 68.9145 67.0001 69.0026C65.9019 69.1807 64.6634 69.1768 64.0001 70.0026C63.3367 70.8285 62.8399 72.0128 63.0001 73.0026C63.0793 73.4928 63.7187 74.5836 64.0001 75.0026C64.2814 75.4217 64.5595 75.7184 65.0001 76.0026C65.4406 76.2869 66.4673 75.8965 67.0001 76.0026C67.5328 76.1087 67.4563 76.0908 68.0001 76.0026C69.0982 75.8246 70.3367 75.8285 71.0001 75.0026C71.6634 74.1768 72.1602 72.9925 72.0001 72.0026ZM72.0001 96.0026C73.0534 96.1564 74.1345 96.7224 75.0001 96.0026C75.8656 95.2829 76.8293 94.1743 77.0001 93.0026C77.1708 91.831 76.6241 89.9399 76.0001 89.0026C75.376 88.0654 74.0534 88.1565 73.0001 88.0026C71.9467 87.8488 70.8656 87.2829 70.0001 88.0026C69.1345 88.7224 69.1708 89.831 69.0001 91.0026C68.8293 92.1743 68.376 94.0654 69.0001 95.0026C69.6241 95.9399 70.9467 95.8488 72.0001 96.0026ZM100 91.0026C100 90.2478 99.5332 89.5364 99.0001 89.0026C98.4669 88.4689 97.754 88.0026 97.0001 88.0026C96.2461 88.0026 95.5332 88.4689 95.0001 89.0026C94.4669 89.5364 94.0001 90.2478 94.0001 91.0026C94.0001 91.7575 94.4669 92.4689 95.0001 93.0026C95.5332 93.5364 96.2461 94.0026 97.0001 94.0026C97.754 94.0026 98.4669 93.5364 99.0001 93.0026C99.5332 92.4689 100 91.7575 100 91.0026Z" fill="#FF6D41"/>
<path d="M47 64C47 64.3978 47.2813 64.7187 47 65C46.7187 65.2813 46.3978 65 46 65C45.6022 65 44.2813 65.2813 44 65C43.7187 64.7187 44 64.3978 44 64C44 63.6022 43.7187 62.2813 44 62C44.2813 61.7187 45.6022 62 46 62C46.3978 62 46.7187 61.7187 47 62C47.2813 62.2813 47 63.6022 47 64Z" fill="#FF6D41"/>
<path d="M105 75C104.389 75.7632 104.045 75.9814 103 76C101.955 76.0186 100.867 75.7369 100 75C99.5704 74.6352 99.2811 74.4817 99 74C98.7188 73.5183 98.0899 72.5252 98 72C97.91 71.4748 97.885 71.4888 98 71C98.1149 70.5112 98.6976 69.3779 99 69C99.6106 68.2368 99.9548 68.0186 101 68C102.045 67.9814 103.132 68.2632 104 69C104.43 69.3649 104.719 69.5183 105 70C105.281 70.4817 105.91 71.4748 106 72C106.09 72.5252 106.115 72.5112 106 73C105.885 73.4888 105.302 74.6221 105 75Z" fill="white"/>
<path d="M70.9999 71C71.153 72.0441 70.634 73.129 69.9999 74C69.3659 74.8711 69.0497 75.8122 67.9999 76C67.4801 76.0931 66.5092 76.112 65.9999 76C65.4907 75.8881 65.4211 75.2999 64.9999 75C64.5788 74.7002 64.2689 74.4421 63.9999 74C63.731 73.558 63.0757 73.517 62.9999 73C62.8469 71.9559 63.3659 70.8711 63.9999 70C64.634 69.129 64.9502 68.1879 65.9999 68C66.5197 67.907 67.4907 67.8881 67.9999 68C68.5092 68.112 68.5788 68.7002 68.9999 69C69.4211 69.2999 69.731 69.558 69.9999 70C70.2689 70.4421 70.9241 70.483 70.9999 71Z" fill="white"/>
<path d="M72 96C70.9528 95.8447 70.6204 94.9466 70 94C69.3795 93.0535 68.8302 92.1833 69 91C69.1697 89.8167 70.1395 88.7269 71 88C71.8605 87.2731 72.9528 86.8447 74 87C75.0472 87.1554 75.3795 88.0535 76 89C76.6204 89.9466 77.1697 90.8167 77 92C76.8302 93.1833 75.8605 94.2731 75 95C74.1395 95.7269 73.0472 96.1554 72 96Z" fill="white"/>
<path d="M100 91C100 91.7957 99.5626 92.4374 99 93C98.4374 93.5626 97.7956 94 97 94C96.2044 94 95.5626 93.5626 95 93C94.4374 92.4374 94 91.7957 94 91C94 90.2044 94.4374 89.5626 95 89C95.5626 88.4374 96.2044 88 97 88C97.7956 88 98.4374 88.4374 99 89C99.5626 89.5626 100 90.2044 100 91Z" fill="white"/>
</svg>
