<svg width="368" height="242" viewBox="0 0 368 242" fill="none" xmlns="http://www.w3.org/2000/svg">
<g clip-path="url(#clip0_44_245)">
<mask id="mask0_44_245" style="mask-type:luminance" maskUnits="userSpaceOnUse" x="0" y="0" width="368" height="242">
<path d="M368 0H0V242H368V0Z" fill="white"/>
</mask>
<g mask="url(#mask0_44_245)">
<path d="M183.76 89.8397C123.72 89.8397 63.6804 89.8397 3.64039 89.8397C3.11039 89.8397 2.58039 89.8597 2.06039 89.8197C0.890397 89.7297 0.110397 88.9197 0.0503969 87.7797C-0.00960309 86.6197 0.650397 85.7397 1.81039 85.5097C2.32039 85.4097 2.86039 85.4197 3.38039 85.4197C33.8004 85.4197 64.2104 85.4197 94.6304 85.4197C96.3804 85.4197 96.4004 85.4197 96.4604 83.7097C97.1604 64.6197 103.281 47.4797 115.241 32.5797C129.021 15.3997 146.831 4.72969 168.601 1.22969C193.671 -2.80031 216.461 3.03969 236.391 18.8097C253.581 32.4197 263.96 50.2597 267.79 71.8797C268.5 75.9097 268.85 79.9797 268.96 84.0697C268.99 85.1497 269.26 85.4597 270.37 85.4597C285.62 85.4197 300.87 85.4397 316.12 85.4397C332.21 85.4397 348.29 85.4397 364.38 85.4397C364.95 85.4397 365.54 85.4397 366.07 85.5897C367.14 85.8897 367.67 86.7197 367.6 87.7797C367.53 88.8897 366.9 89.6697 365.71 89.8097C365.1 89.8797 364.48 89.8497 363.87 89.8497C303.83 89.8497 243.791 89.8497 183.751 89.8497L183.76 89.8397ZM195.491 45.4997C198.211 44.4897 199.281 42.9397 198.941 40.5197C198.651 38.4897 196.871 37.1897 194.141 37.1397C192.261 37.1097 190.37 37.2697 188.48 37.2597C182.64 37.2297 176.801 37.1597 170.971 37.1297C168.431 37.1197 166.901 38.0597 166.251 39.9497C165.421 42.3697 166.59 44.3997 169.43 45.4997C169.34 45.5597 169.25 45.6197 169.15 45.6797C169.17 45.7097 169.191 45.7697 169.221 45.7697C169.391 45.7797 169.571 45.7797 169.751 45.7797C178.161 45.7797 186.57 45.7797 194.98 45.7697C195.15 45.7697 195.541 46.0197 195.501 45.5097L195.491 45.4997ZM200.521 45.3897C204.281 45.9897 206.72 48.1597 207.09 51.1697C207.54 54.8297 205.9 57.4397 202.18 58.8897C201.73 59.0697 201.581 59.2497 201.531 59.6997C201.201 62.9697 200.84 66.2397 200.51 69.5097C200.03 74.3997 199.631 79.2897 199.061 84.1697C198.931 85.3097 199.25 85.3897 200.18 85.3897C221.23 85.3697 242.29 85.3697 263.34 85.3997C264.48 85.3997 264.68 84.9597 264.57 84.0097C264.25 81.2697 264.23 78.4997 263.88 75.7497C262.81 67.4597 260.54 59.5297 257.02 51.9597C252.23 41.6697 245.611 32.7397 237.131 25.1797C229.941 18.7697 221.891 13.7597 212.961 10.2097C199.971 5.0497 186.51 3.46969 172.65 5.08969C163.63 6.14969 155.041 8.69969 146.911 12.6897C133.061 19.4897 121.961 29.3997 113.651 42.4097C108.281 50.8197 104.611 59.9197 102.581 69.6997C101.581 74.4797 101.2 79.3197 100.84 84.1797C100.75 85.4297 101.431 85.3697 102.281 85.3697C123.031 85.3697 143.771 85.3697 164.521 85.3697C164.701 85.3697 164.871 85.3497 165.051 85.3697C165.801 85.4497 166.071 85.1297 165.991 84.3797C165.761 82.2897 165.601 80.1897 165.391 78.0997C164.811 72.3397 164.171 66.5897 163.661 60.8297C163.551 59.6397 163.271 59.0097 162.061 58.5397C157.541 56.7697 156.431 51.0397 159.801 47.5397C161.101 46.1797 162.721 45.5797 164.551 45.4197C162.081 39.8497 163.731 36.1297 169.321 34.5097C170.031 34.2997 170.001 34.1497 169.671 33.5497C167.371 29.3797 169.981 24.2997 174.711 23.5797C176.311 23.3397 177.931 23.5897 179.741 23.3197C178.231 21.2997 176.811 19.4297 175.421 17.5297C173.901 15.4497 173.95 12.9797 175.54 11.2497C177.12 9.50969 179.531 9.2597 181.751 10.7397C182.451 11.2097 182.801 11.0797 183.421 10.6497C186.161 8.70969 189.601 9.9597 190.551 13.1797C191.001 14.6897 190.681 16.0497 189.781 17.2897C188.541 18.9997 187.26 20.6697 186.01 22.3697C185.82 22.6297 185.4 22.8797 185.62 23.2597C185.78 23.5497 186.181 23.4197 186.471 23.4197C187.261 23.4297 188.05 23.4097 188.84 23.4197C193.371 23.5597 196.131 26.2697 196.191 30.5997C196.211 31.9597 195.59 33.1197 195.04 34.3197C200.74 35.0897 203.341 40.2797 200.521 45.3797V45.3897ZM182.351 56.3597C188.411 56.3597 194.48 56.3597 200.54 56.3597C202.06 56.3597 203.84 55.2097 204.18 54.0497C205.19 50.6497 203.341 48.1497 199.811 48.1497C190.451 48.1497 181.09 48.1497 171.73 48.1497C169.4 48.1497 167.071 48.1197 164.741 48.1597C162.321 48.1997 160.371 50.1297 160.451 52.4097C160.521 54.3097 162.261 56.4597 164.811 56.3997C170.651 56.2597 176.5 56.3597 182.34 56.3597H182.351ZM182.561 26.2197C180.281 26.2197 177.991 26.1997 175.711 26.2197C173.301 26.2497 171.5 28.0497 171.51 30.3497C171.52 32.6597 173.331 34.4397 175.751 34.4497C180.271 34.4697 184.801 34.4697 189.321 34.4497C191.791 34.4397 193.451 32.7497 193.461 30.3097C193.461 27.9097 191.781 26.2397 189.281 26.2097C187.041 26.1897 184.801 26.2097 182.561 26.2097V26.2197ZM181.221 71.4897C181.221 67.7997 181.181 64.1097 181.241 60.4097C181.261 59.3897 180.931 59.1197 179.961 59.1697C178.511 59.2497 177.061 59.2497 175.611 59.1697C174.651 59.1197 174.3 59.3597 174.37 60.3997C174.61 63.9897 174.74 67.5897 174.93 71.1897C175.13 74.9597 175.351 78.7297 175.531 82.4997C175.581 83.4397 175.871 83.9297 176.941 83.8197C177.981 83.7197 179.051 83.7397 180.101 83.8197C180.991 83.8797 181.231 83.5497 181.221 82.6897C181.181 78.9497 181.201 75.2197 181.201 71.4797L181.221 71.4897ZM183.87 71.4597C183.87 75.1897 183.901 78.9197 183.851 82.6497C183.841 83.5897 184.141 83.8697 185.051 83.8197C186.191 83.7497 187.331 83.7697 188.471 83.8197C189.221 83.8497 189.411 83.5597 189.451 82.8297C189.841 75.2597 190.251 67.6897 190.691 60.1197C190.731 59.4297 190.561 59.1797 189.851 59.1897C188.271 59.2297 186.691 59.2497 185.111 59.1797C184.151 59.1297 183.83 59.3897 183.84 60.4097C183.9 64.0897 183.86 67.7797 183.87 71.4597ZM196.18 59.1497C195.7 59.1497 195.21 59.1897 194.73 59.1497C193.76 59.0397 193.301 59.3197 193.331 60.4097C193.371 61.5897 193.201 62.7697 193.131 63.9597C192.841 69.4797 192.581 75.0097 192.251 80.5297C191.991 84.8497 191.491 83.7897 195.451 83.9597C196.271 83.9897 196.481 83.6197 196.551 82.8697C197.231 75.8797 197.931 68.8997 198.641 61.9197C198.921 59.1497 198.94 59.1597 196.18 59.1497ZM172.811 80.6697C172.751 79.5297 172.651 77.7297 172.561 75.9397C172.281 70.6797 172.001 65.4297 171.751 60.1697C171.711 59.3497 171.361 59.1197 170.601 59.1497C169.591 59.1897 168.571 59.2497 167.571 59.1397C166.261 58.9897 166.131 59.6297 166.251 60.6697C166.541 63.1097 166.771 65.5497 167.021 67.9897C167.501 72.7897 168.02 77.5797 168.43 82.3797C168.54 83.6697 169.001 84.0497 170.281 83.9897C172.861 83.8797 172.861 83.9597 172.801 80.6797L172.811 80.6697ZM179.01 12.5197C178.2 12.3997 177.631 12.7197 177.271 13.4197C176.851 14.2397 176.931 15.0397 177.471 15.7697C178.961 17.7697 180.481 19.7597 181.951 21.7797C182.401 22.3997 182.691 22.3497 183.111 21.7697C184.531 19.8197 185.971 17.8897 187.441 15.9797C188.111 15.1197 188.241 14.2497 187.691 13.3097C187.221 12.4997 186.44 12.3797 185.62 12.5697C184.63 12.7997 184 13.4597 183.9 14.4897C183.81 15.3697 183.501 16.0997 182.561 16.1597C181.561 16.2297 181.321 15.4597 181.161 14.5997C180.941 13.4297 180.3 12.5997 179.01 12.5197Z" fill="white"/>
<path d="M183.911 182.65C244.031 182.65 304.161 182.65 364.281 182.65C366.571 182.65 367.641 183.37 367.631 184.89C367.631 186.34 366.441 187.13 364.241 187.13C243.901 187.13 123.57 187.13 3.23051 187.13C2.71051 187.13 2.17051 187.11 1.67051 186.97C0.560515 186.66 0.000515135 185.89 0.0605152 184.72C0.130516 183.53 0.850516 182.9 1.95051 182.69C2.46051 182.59 3.00051 182.65 3.53051 182.65C63.6505 182.65 123.78 182.65 183.9 182.65H183.911Z" fill="white"/>
<path d="M254.841 105.92C254.671 104.22 255.511 103.5 256.461 102.84C261.991 99.0097 268.181 97.8697 274.761 98.3997C278.621 98.7097 282.321 99.5697 285.421 102.08C288.201 104.32 289.771 107.25 289.901 110.82C290.021 114.11 289.961 117.41 289.961 120.71C289.961 134.33 289.761 147.96 290.051 161.58C290.201 168.76 286.201 172.03 280.851 173.3C274.601 174.78 268.401 174.46 262.331 172.23C260.621 171.6 259.251 170.62 258.301 169.04C258.021 168.59 257.751 168.06 257.071 167.72C257.161 169.45 255.951 170.03 254.801 170.65C246.761 175 238.401 175.46 229.881 172.38C224.961 170.6 221.781 166.27 221.821 160.36C221.951 142.87 221.901 125.38 221.831 107.89C221.831 105.17 222.951 103.26 225.061 101.8C227.801 99.8997 230.961 99.1497 234.191 98.6797C238.541 98.0497 242.851 98.1897 247.091 99.5097C249.821 100.36 252.161 101.67 253.611 104.26C253.881 104.74 254.261 105.15 254.841 105.93V105.92ZM226.321 134.75C226.321 143.45 226.361 152.15 226.301 160.85C226.281 163.95 227.611 166.17 230.241 167.63C234.601 170.05 239.341 170.02 244.101 169.58C246.641 169.34 249.101 168.65 251.401 167.5C252.981 166.72 253.051 166.41 252.131 164.9C249.811 161.12 247.491 157.34 245.181 153.56C244.621 152.64 244.311 151.64 244.351 150.56C244.411 148.81 245.501 147.45 247.161 147.02C248.881 146.57 249.441 146.84 250.611 148.79C254.251 154.9 257.831 161.04 262.131 166.72C262.551 167.27 263.011 167.65 263.641 167.92C265.921 168.91 268.331 169.42 270.781 169.61C274.661 169.92 278.521 169.74 282.151 168.15C284.201 167.25 285.541 165.78 285.541 163.3C285.511 146.16 285.511 129.02 285.531 111.88C285.531 108.14 283.781 105.5 280.371 104.23C273.411 101.64 266.601 102.22 260.051 105.76C258.961 106.35 259.091 107.24 259.571 108.12C260.521 109.85 261.561 111.53 262.521 113.26C263.781 115.52 265.331 117.62 266.221 120.08C266.891 121.93 266.001 123.89 264.221 124.68C262.421 125.48 261.341 125.03 260.151 123.05C257.041 117.86 253.871 112.7 250.611 107.59C249.011 105.08 246.851 103.77 244.051 103.27C243.101 103.1 242.151 102.91 241.191 102.85C236.711 102.56 232.341 102.99 228.251 105.04C226.911 105.71 226.28 106.63 226.29 108.25C226.37 117.08 226.331 125.92 226.331 134.75H226.321Z" fill="white"/>
<path d="M33.0105 105.63C32.8405 104.13 33.7905 103.44 34.7705 102.76C40.2305 99.0198 46.3405 97.8998 52.8205 98.3898C55.3705 98.5798 57.8705 99.0198 60.2305 100.07C65.3905 102.37 68.1505 106.29 68.1605 112C68.1805 119.6 68.1605 127.2 68.1605 134.8C68.1605 144.16 68.1105 153.52 68.1805 162.88C68.2105 167.44 66.0205 170.46 62.0205 172.25C57.9105 174.09 53.5305 174.31 49.1105 174.05C46.3805 173.89 43.7305 173.32 41.1405 172.43C39.2605 171.79 37.6305 170.88 36.5705 169.11C36.2805 168.62 35.9505 168.07 35.2405 167.67C35.3405 169.44 34.1105 170.01 32.9605 170.63C24.9205 174.95 16.5705 175.43 8.0605 172.36C3.6305 170.78 -0.0494964 166.84 0.000503582 160.35C0.140504 142.91 0.0805036 125.46 0.000503582 108.02C-0.00949642 105.14 1.1605 103.15 3.4405 101.65C6.1405 99.8698 9.2105 99.1298 12.3505 98.6798C16.4405 98.0898 20.4905 98.1698 24.4905 99.2898C27.5205 100.13 30.2605 101.4 31.8605 104.35C32.1005 104.79 32.3605 105.27 32.9905 105.64L33.0105 105.63ZM4.3505 134.36C4.3505 142.93 4.3605 151.5 4.3505 160.07C4.3505 163.97 5.9205 166.72 9.6605 168.28C13.8305 170.02 18.1405 169.96 22.4705 169.57C25.0405 169.34 27.5205 168.53 29.8605 167.38C30.8905 166.87 31.1705 166.22 30.5105 165.17C28.6105 162.18 26.7105 159.19 24.9105 156.15C23.9905 154.59 22.8005 153.15 22.6105 151.21C22.4405 149.47 23.4105 147.68 25.0105 147.1C26.7505 146.48 27.7005 146.94 28.8205 148.86C31.9305 154.19 35.1105 159.49 38.6905 164.52C39.6005 165.79 40.2605 167.36 41.9405 167.98C47.7705 170.15 53.6705 170.34 59.6005 168.52C62.4305 167.65 63.8505 165.6 63.8505 162.71C63.8705 146.01 63.8705 129.31 63.8505 112.61C63.8505 108.52 62.1205 105.5 58.2105 103.99C54.6105 102.59 50.8305 102.44 47.0605 102.85C44.1805 103.17 41.3905 103.95 38.8105 105.36C37.2805 106.2 37.0805 106.9 37.9105 108.43C38.0805 108.74 38.2705 109.03 38.4405 109.33C40.3105 112.7 42.4705 115.9 44.1205 119.39C45.1005 121.46 44.4405 123.78 42.5105 124.54C40.2305 125.44 39.3805 124.91 38.1005 122.67C35.1005 117.43 31.9405 112.28 28.5405 107.29C27.6905 106.05 26.8905 104.79 25.3105 104.17C21.8705 102.83 18.3305 102.41 14.7105 102.78C11.8005 103.08 8.8905 103.56 6.2705 105.04C4.9105 105.81 4.3205 106.88 4.3305 108.47C4.3805 117.08 4.3505 125.7 4.3505 134.31V134.36Z" fill="white"/>
<path d="M330.59 166.99C327.83 170.65 324.05 172.25 320 173.26C312.53 175.12 305.26 174.61 298.41 170.86C294.97 168.98 292.43 166.24 291.62 162.25C291.08 159.6 291.77 157.02 292.34 154.45C295.57 140.01 298.81 125.56 302.05 111.12C302.39 109.62 302.81 108.14 303.06 106.63C303.26 105.43 303.86 104.66 304.88 104.07C309.57 101.33 314.65 99.7498 319.99 98.9298C327.43 97.7798 334.78 98.0298 341.98 100.41C343.86 101.03 345.64 101.88 347.33 102.93C351.64 105.6 354.37 109.35 355.56 114.34C359.45 130.7 363.42 147.04 367.4 163.37C367.75 164.8 367.5 165.89 366.5 166.97C363.73 169.94 360.38 171.96 356.51 173.07C351.31 174.55 346.01 174.69 340.73 173.61C336.57 172.76 332.94 170.92 330.61 166.99H330.59ZM328.171 102.73C326.451 102.66 324.75 102.8 323.04 102.99C317.95 103.57 313.04 104.78 308.44 107.14C307.66 107.54 307.26 108.06 307.07 108.89C303.44 125.22 299.81 141.56 296.15 157.88C295.4 161.24 296.33 163.95 299.09 165.99C299.9 166.59 300.761 167.13 301.671 167.57C306.081 169.71 310.78 170.12 315.56 169.62C318.9 169.27 322.07 168.26 324.93 166.39C325.73 165.87 325.901 165.3 325.701 164.4C325.401 163.08 325.17 161.73 325.05 160.38C324.98 159.55 324.811 159.19 323.891 159.07C321.581 158.78 319.31 158.26 317.26 157.07C314.72 155.61 313.93 153 315.37 150.84C316.23 149.55 317.42 149.28 318.78 150.03C325.13 153.53 331.49 153.45 337.84 150.01C338.92 149.42 339.92 149.45 340.85 150.34C342.75 152.15 342.47 154.79 340.16 156.42C338.41 157.66 336.39 158.24 334.32 158.72C333.97 158.8 333.32 158.58 333.31 159.41C333.24 164.39 335.34 167.34 340.11 168.85C343.53 169.94 347.05 169.92 350.55 169.66C354.65 169.35 358.44 168.07 361.69 165.41C362.66 164.61 363.16 163.84 362.62 162.53C362.21 161.53 362.11 160.41 361.85 159.34C358.28 144.61 354.64 129.89 351.16 115.14C350.11 110.69 347.37 107.83 343.49 105.85C338.68 103.39 333.471 102.78 328.171 102.72V102.73Z" fill="white"/>
<path d="M220.411 136.61C220.381 142.58 219.64 148.44 217.37 154.01C213.35 163.87 206.281 170.41 195.971 173.27C186.801 175.81 177.621 175.76 168.661 172.42C156.011 167.7 148.851 158.32 146.501 145.22C145.001 136.84 145.291 128.46 148.331 120.42C153.301 107.3 163.021 100.02 176.781 97.9995C184.311 96.8895 191.711 97.5195 198.771 100.45C209.981 105.11 216.451 113.74 219.241 125.36C220.121 129.05 220.431 132.81 220.421 136.6L220.411 136.61ZM215.911 136.65C215.971 132.99 215.671 129.37 214.771 125.82C212.231 115.84 206.6 108.43 196.9 104.5C190.44 101.88 183.701 101.42 176.861 102.48C165.861 104.19 157.65 109.83 153.23 120.19C149.11 129.86 149.131 139.85 152.251 149.79C154.821 157.98 160.171 163.89 168.021 167.37C177.031 171.36 186.321 171.52 195.671 168.72C203.111 166.5 208.581 161.83 212.101 154.88C215.021 149.14 215.971 143 215.921 136.65H215.911Z" fill="white"/>
<path d="M69.6405 136.78C69.6005 129.98 70.5105 123.94 73.0805 118.23C77.5005 108.42 84.8705 101.99 95.2405 99.1296C103.521 96.8396 111.831 96.8696 120.031 99.5196C130.771 103 138.071 110.18 141.741 120.83C145.391 131.39 145.351 142.1 141.701 152.62C137.471 164.82 128.611 171.83 116.021 174.18C107.59 175.75 99.2805 175.26 91.3105 171.96C79.6705 167.14 72.9905 158.22 70.4905 146.01C69.8305 142.77 69.5805 139.49 69.6305 136.77L69.6405 136.78ZM139.87 136.39C139.93 132.99 139.58 129.63 138.79 126.34C136.02 114.86 129.301 106.94 117.821 103.46C112.281 101.78 106.591 101.56 100.881 102.45C89.5105 104.22 81.1905 110.1 76.8105 120.89C73.2705 129.61 73.2205 138.64 75.5005 147.65C77.9405 157.31 83.8505 164.17 93.1205 167.89C101.701 171.33 110.511 171.39 119.321 168.81C127.781 166.33 133.591 160.83 136.991 152.73C139.191 147.49 139.821 141.99 139.881 136.39H139.87Z" fill="white"/>
<path d="M22.6706 221.54C27.9406 223.44 29.9006 228.45 29.0006 233.36C28.0706 238.47 23.8606 242.15 18.8206 242.22C12.9806 242.3 7.13055 242.23 1.29055 242.26C0.560556 242.26 0.320557 242.08 0.320557 241.32C0.340557 228.8 0.340557 216.28 0.320557 203.75C0.320557 202.96 0.610556 202.82 1.31055 202.82C7.11055 202.84 12.9106 202.85 18.7106 202.83C23.2706 202.81 27.1106 206.69 27.4006 211.54C27.5506 214 27.1006 216.35 25.9106 218.53C25.2006 219.83 24.2506 220.9 22.6706 221.54ZM11.4806 223.13C11.4806 223.13 11.4806 223.09 11.4806 223.07C9.11055 223.07 6.74055 223.12 4.37055 223.05C3.35055 223.02 3.12055 223.37 3.13055 224.33C3.18055 229.03 3.17055 233.73 3.13055 238.42C3.13055 239.32 3.35055 239.62 4.30055 239.61C8.95055 239.56 13.6106 239.61 18.2606 239.57C22.6706 239.52 26.3206 235.83 26.4306 231.39C26.5306 226.95 23.1606 223.35 18.5906 223.15C16.2206 223.05 13.8506 223.13 11.4806 223.13ZM11.4206 205.6C9.01055 205.6 6.59055 205.63 4.18055 205.58C3.38055 205.56 3.13055 205.79 3.14055 206.61C3.18055 210.87 3.17055 215.12 3.14055 219.38C3.14055 220.21 3.34055 220.54 4.23055 220.53C8.92055 220.48 13.6206 220.48 18.3106 220.48C19.9606 220.48 21.2606 219.75 22.3406 218.56C23.5506 217.22 24.2406 215.63 24.5406 213.86C25.4206 208.54 21.2906 205.2 17.6106 205.57C15.5706 205.77 13.4906 205.61 11.4306 205.61L11.4206 205.6Z" fill="white"/>
<path d="M292.171 223.07C295.261 225 296.141 228.02 296.771 231.16C297.341 233.98 297.031 236.86 297.281 239.7C297.351 240.54 297.511 241.34 297.751 242.13C297.701 242.16 297.671 242.19 297.631 242.2C294.801 242.46 294.251 241.96 294.131 239.02C294.021 236.26 294.101 233.48 293.651 230.74C293.411 229.29 292.801 227.98 291.991 226.76C290.771 224.94 289.141 224.02 286.901 224.05C282.371 224.11 277.851 224.11 273.321 224.04C272.191 224.02 271.961 224.37 271.971 225.43C272.021 230.62 271.961 235.8 272.021 240.99C272.031 242.06 271.711 242.35 270.701 242.27C269.871 242.2 269.151 242.42 269.161 241.06C269.221 228.71 269.201 216.36 269.171 204.01C269.171 203.08 269.451 202.82 270.361 202.82C276.031 202.86 281.701 202.99 287.371 202.8C293.651 202.59 298.651 208.18 297.721 214.89C297.231 218.46 295.861 221.48 292.161 223.06L292.171 223.07ZM280.551 205.6C278.051 205.6 275.551 205.64 273.051 205.58C272.161 205.56 271.961 205.86 271.971 206.69C272.011 211.25 272.021 215.82 271.971 220.38C271.961 221.37 272.331 221.51 273.191 221.5C277.891 221.46 282.581 221.44 287.281 221.5C289.751 221.53 291.731 220.59 293.231 218.69C295.341 216.03 295.601 213.04 294.261 210.03C292.951 207.1 290.591 205.54 287.281 205.6C285.041 205.64 282.801 205.6 280.571 205.6H280.551Z" fill="white"/>
<path d="M99.2304 242.14C99.1704 242.17 99.1404 242.2 99.1004 242.2C96.2604 242.46 96.2804 242.45 95.2504 239.84C94.0204 236.71 92.7404 233.59 91.5304 230.46C91.2804 229.83 90.9404 229.61 90.2704 229.61C84.8704 229.63 79.4604 229.64 74.0604 229.6C73.2604 229.6 73.0304 229.97 72.7804 230.59C71.3804 234.14 69.9504 237.67 68.5304 241.21C68.1904 242.05 66.0104 242.73 65.3304 242.18C64.9304 241.86 65.2904 241.47 65.4304 241.14C67.0704 236.99 68.7004 232.83 70.3504 228.68C73.6104 220.46 76.9004 212.25 80.1204 204.01C80.4704 203.12 80.8804 202.79 81.8204 202.81C84.0004 202.85 84.0004 202.81 84.7904 204.82C89.5004 216.84 94.2204 228.87 98.9204 240.89C99.0804 241.29 99.3204 241.68 99.2404 242.13L99.2304 242.14ZM82.2704 206.43C82.1304 206.53 82.0704 206.55 82.0604 206.58C79.4704 213.12 76.8904 219.66 74.3104 226.21C73.9204 227.2 74.6804 226.94 75.1304 226.95C78.9004 226.96 82.6704 226.95 86.4504 226.95C87.6204 226.95 88.7904 226.95 90.1304 226.95C87.4804 220.01 84.8904 213.25 82.2804 206.43H82.2704Z" fill="white"/>
<path d="M166.471 203C162.881 206.48 159.381 209.87 155.881 213.26C154.081 215 152.301 216.77 150.471 218.47C149.831 219.06 149.77 219.44 150.34 220.18C155.83 227.26 161.271 234.37 166.721 241.47C166.871 241.67 167.131 241.82 167.051 242.26C166.171 242.26 165.261 242.23 164.361 242.26C163.741 242.28 163.561 241.79 163.281 241.43C158.301 235.02 153.31 228.61 148.37 222.16C147.73 221.32 147.371 221.25 146.601 222C144.901 223.65 143.14 225.24 141.34 226.79C140.54 227.48 140.201 228.21 140.221 229.28C140.281 233.23 140.181 237.19 140.281 241.15C140.311 242.5 139.55 242.24 138.79 242.26C138.02 242.28 137.42 242.37 137.43 241.17C137.48 228.78 137.48 216.38 137.43 203.99C137.43 202.88 137.871 202.81 138.741 202.82C139.641 202.84 140.291 202.76 140.281 204.07C140.211 210.13 140.251 216.2 140.251 222.27C140.251 222.83 140.251 223.4 140.251 223.97C140.891 224.04 141.101 223.57 141.391 223.29C147.981 217.08 154.61 210.92 161.09 204.6C162.65 203.08 164.191 202.5 166.471 202.99V203Z" fill="white"/>
<path d="M205.221 222.5C205.221 216.35 205.241 210.2 205.201 204.05C205.201 203.14 205.431 202.86 206.361 202.86C214.181 202.9 222.001 202.91 229.821 202.86C231.021 202.86 230.911 203.49 230.911 204.25C230.911 205 231.061 205.65 229.831 205.63C222.981 205.57 216.121 205.63 209.271 205.57C208.151 205.57 207.901 205.9 207.921 206.97C207.981 211.01 207.991 215.06 207.921 219.1C207.901 220.24 208.171 220.6 209.361 220.58C215.471 220.52 221.57 220.57 227.68 220.53C228.64 220.53 229.07 220.67 229.04 221.79C229.02 222.81 228.771 223.11 227.721 223.1C221.571 223.05 215.421 223.1 209.271 223.05C208.271 223.05 207.901 223.25 207.921 224.35C207.981 229.01 207.981 233.67 207.921 238.32C207.911 239.4 208.241 239.62 209.251 239.61C215.971 239.57 222.701 239.58 229.421 239.61C229.901 239.61 230.641 239.31 230.821 239.9C231.021 240.54 230.92 241.29 230.84 241.99C230.79 242.39 230.351 242.26 230.061 242.26C222.061 242.26 214.071 242.25 206.071 242.29C205.051 242.29 205.211 241.7 205.211 241.1C205.211 234.9 205.211 228.71 205.211 222.51L205.221 222.5Z" fill="white"/>
<path d="M334.101 202.85C335.371 202.85 336.451 202.85 337.531 202.85C338.211 202.85 338.381 203.42 338.651 203.83C342.381 209.4 346.091 214.98 349.811 220.56C350.071 220.96 350.351 221.35 350.711 221.87C352.321 219.39 353.871 217.01 355.421 214.63C357.681 211.13 359.971 207.65 362.171 204.11C362.781 203.13 363.441 202.67 364.591 202.83C365.271 202.92 365.981 202.85 366.671 202.85C366.861 203.33 366.521 203.55 366.341 203.82C361.941 210.53 357.541 217.25 353.111 223.94C352.601 224.72 352.391 225.48 352.401 226.39C352.431 231.18 352.361 235.97 352.451 240.76C352.481 242.09 352.061 242.48 350.851 242.27C350.681 242.24 350.491 242.24 350.321 242.27C349.361 242.43 349.171 241.98 349.181 241.1C349.221 236.27 349.181 231.43 349.221 226.6C349.221 225.64 349.001 224.84 348.451 224.04C343.911 217.42 339.401 210.78 334.891 204.14C334.651 203.79 334.441 203.42 334.091 202.87L334.101 202.85Z" fill="white"/>
<path d="M200.521 45.3899C203.331 40.2899 200.74 35.0999 195.04 34.3299C195.6 33.1299 196.211 31.9699 196.191 30.6099C196.131 26.2799 193.371 23.5699 188.84 23.4299C188.05 23.4099 187.261 23.4299 186.471 23.4299C186.181 23.4299 185.78 23.5499 185.62 23.2699C185.4 22.8899 185.81 22.6399 186.01 22.3799C187.26 20.6799 188.551 19.0099 189.781 17.2999C190.671 16.0599 191.001 14.6999 190.551 13.1899C189.591 9.96985 186.161 8.72985 183.421 10.6599C182.801 11.0999 182.451 11.2199 181.751 10.7499C179.541 9.26985 177.13 9.51986 175.54 11.2599C173.96 12.9899 173.901 15.4599 175.421 17.5399C176.811 19.4399 178.241 21.3099 179.741 23.3299C177.931 23.5999 176.311 23.3399 174.711 23.5899C169.981 24.3099 167.371 29.3899 169.671 33.5599C170.001 34.1499 170.031 34.3099 169.321 34.5199C163.721 36.1299 162.071 39.8599 164.551 45.4299C162.711 45.5999 161.101 46.1999 159.801 47.5499C156.431 51.0499 157.541 56.7799 162.061 58.5499C163.261 59.0199 163.551 59.6499 163.661 60.8399C164.171 66.5999 164.811 72.3499 165.391 78.1099C165.601 80.1999 165.771 82.2999 165.991 84.3899C166.071 85.1499 165.801 85.4599 165.051 85.3799C164.881 85.3599 164.701 85.3799 164.521 85.3799C143.771 85.3799 123.031 85.3799 102.281 85.3799C101.431 85.3799 100.75 85.4399 100.84 84.1899C101.2 79.3399 101.581 74.4999 102.581 69.7099C104.621 59.9299 108.281 50.8299 113.651 42.4199C121.961 29.4099 133.061 19.4899 146.911 12.6999C155.051 8.70985 163.63 6.14985 172.65 5.09985C186.52 3.47985 199.971 5.06985 212.961 10.2199C221.901 13.7699 229.941 18.7799 237.131 25.1899C245.611 32.7499 252.231 41.6799 257.021 51.9699C260.541 59.5399 262.811 67.4699 263.881 75.7599C264.231 78.5099 264.251 81.2699 264.571 84.0199C264.681 84.9699 264.481 85.4099 263.341 85.4099C242.291 85.3699 221.23 85.3799 200.18 85.3999C199.25 85.3999 198.931 85.3199 199.061 84.1799C199.631 79.2999 200.03 74.4099 200.51 69.5199C200.83 66.2499 201.201 62.9799 201.531 59.7099C201.571 59.2599 201.72 59.0699 202.18 58.8999C205.9 57.4499 207.54 54.8399 207.09 51.1799C206.72 48.1799 204.271 45.9999 200.521 45.3999V45.3899Z" fill="#BEDB8C"/>
<path d="M182.351 56.3497C176.511 56.3497 170.661 56.2497 164.821 56.3897C162.271 56.4497 160.531 54.2997 160.461 52.3997C160.381 50.1197 162.331 48.1897 164.751 48.1497C167.081 48.1097 169.411 48.1397 171.741 48.1397C181.101 48.1397 190.461 48.1397 199.821 48.1397C203.341 48.1397 205.201 50.6397 204.191 54.0397C203.851 55.1997 202.071 56.3497 200.551 56.3497C194.491 56.3497 188.421 56.3497 182.361 56.3497H182.351Z" fill="#ED78AD"/>
<path d="M169.43 45.4897C166.58 44.3897 165.421 42.3597 166.251 39.9397C166.901 38.0597 168.421 37.1097 170.971 37.1197C176.811 37.1497 182.65 37.2297 188.48 37.2497C190.36 37.2497 192.251 37.0897 194.141 37.1297C196.871 37.1797 198.661 38.4897 198.941 40.5097C199.291 42.9397 198.221 44.4797 195.491 45.4897C186.801 45.4897 178.12 45.4897 169.43 45.4897Z" fill="#FBD174"/>
<path d="M182.561 26.2198C184.801 26.2198 187.041 26.1998 189.281 26.2198C191.781 26.2498 193.461 27.9198 193.461 30.3198C193.461 32.7498 191.801 34.4398 189.321 34.4598C184.801 34.4798 180.271 34.4798 175.751 34.4598C173.331 34.4498 171.53 32.6698 171.51 30.3598C171.5 28.0498 173.301 26.2598 175.711 26.2298C177.991 26.1998 180.281 26.2298 182.561 26.2298V26.2198Z" fill="#D8C1DD"/>
<path d="M181.221 71.4895C181.221 75.2295 181.201 78.9595 181.241 82.6995C181.241 83.5495 181.01 83.8895 180.12 83.8295C179.07 83.7595 178.001 83.7295 176.961 83.8295C175.891 83.9395 175.601 83.4495 175.551 82.5095C175.361 78.7395 175.141 74.9695 174.951 71.1995C174.761 67.5995 174.631 64.0095 174.391 60.4095C174.321 59.3695 174.671 59.1295 175.631 59.1795C177.081 59.2495 178.53 59.2495 179.98 59.1795C180.95 59.1295 181.27 59.3995 181.26 60.4195C181.2 64.1095 181.241 67.7995 181.241 71.4995L181.221 71.4895Z" fill="#B0E0F6"/>
<path d="M183.87 71.4597C183.87 67.7697 183.911 64.0897 183.851 60.4097C183.831 59.3997 184.16 59.1397 185.12 59.1797C186.7 59.2597 188.281 59.2297 189.861 59.1897C190.571 59.1697 190.741 59.4197 190.701 60.1197C190.261 67.6897 189.851 75.2597 189.461 82.8297C189.421 83.5597 189.23 83.8497 188.48 83.8197C187.34 83.7697 186.201 83.7497 185.061 83.8197C184.151 83.8797 183.851 83.5897 183.861 82.6497C183.911 78.9197 183.881 75.1897 183.881 71.4597H183.87Z" fill="#B0E0F6"/>
<path d="M196.18 59.1599C198.94 59.1599 198.921 59.1599 198.641 61.9299C197.931 68.9099 197.231 75.8899 196.551 82.8799C196.481 83.6199 196.271 83.9999 195.451 83.9699C191.491 83.7999 191.991 84.8599 192.251 80.5399C192.581 75.0199 192.841 69.4899 193.131 63.9699C193.191 62.7899 193.361 61.5999 193.331 60.4199C193.301 59.3299 193.76 59.0499 194.73 59.1599C195.21 59.2099 195.7 59.1599 196.18 59.1699V59.1599Z" fill="#B0E0F6"/>
<path d="M172.811 80.6696C172.871 83.9496 172.87 83.8696 170.29 83.9796C169.01 84.0396 168.551 83.6596 168.441 82.3696C168.031 77.5696 167.511 72.7796 167.031 67.9796C166.781 65.5396 166.55 63.0996 166.26 60.6596C166.14 59.6196 166.261 58.9796 167.581 59.1296C168.581 59.2496 169.601 59.1796 170.611 59.1396C171.371 59.1096 171.72 59.3496 171.76 60.1596C172.01 65.4196 172.301 70.6696 172.571 75.9296C172.661 77.7296 172.761 79.5196 172.821 80.6596L172.811 80.6696Z" fill="#B0E0F6"/>
<path d="M179.01 12.5199C180.31 12.5899 180.951 13.4299 181.161 14.5999C181.321 15.4599 181.561 16.2299 182.561 16.1599C183.491 16.0899 183.81 15.3699 183.9 14.4899C184 13.4699 184.63 12.7999 185.62 12.5699C186.44 12.3799 187.211 12.4999 187.691 13.3099C188.241 14.2499 188.101 15.1199 187.441 15.9799C185.971 17.8899 184.531 19.8199 183.111 21.7699C182.681 22.3599 182.401 22.3999 181.951 21.7799C180.481 19.7599 178.961 17.7799 177.471 15.7699C176.931 15.0399 176.851 14.2399 177.271 13.4199C177.631 12.7099 178.2 12.3999 179.01 12.5199Z" fill="#EDB4B0"/>
<path d="M169.43 45.4895C178.12 45.4895 186.801 45.4895 195.491 45.4895C195.541 45.9995 195.141 45.7495 194.971 45.7495C186.561 45.7595 178.151 45.7595 169.741 45.7595C169.561 45.7595 169.391 45.7595 169.211 45.7495C169.191 45.7495 169.171 45.6895 169.141 45.6595C169.231 45.5995 169.321 45.5395 169.421 45.4795L169.43 45.4895Z" fill="white"/>
<path d="M226.321 134.75C226.321 125.92 226.361 117.08 226.281 108.25C226.271 106.62 226.901 105.71 228.241 105.04C232.331 102.99 236.7 102.56 241.18 102.85C242.14 102.91 243.09 103.1 244.04 103.27C246.84 103.77 249.001 105.08 250.601 107.59C253.861 112.7 257.031 117.85 260.141 123.05C261.331 125.03 262.41 125.48 264.21 124.68C266 123.89 266.88 121.93 266.21 120.08C265.32 117.63 263.77 115.52 262.51 113.26C261.55 111.53 260.51 109.85 259.56 108.12C259.08 107.24 258.95 106.35 260.04 105.76C266.58 102.22 273.4 101.64 280.36 104.23C283.76 105.5 285.52 108.14 285.52 111.88C285.51 129.02 285.5 146.16 285.53 163.3C285.53 165.77 284.191 167.24 282.141 168.15C278.511 169.75 274.65 169.93 270.77 169.61C268.32 169.41 265.91 168.9 263.63 167.92C263.01 167.65 262.54 167.27 262.12 166.72C257.82 161.04 254.241 154.9 250.601 148.79C249.431 146.83 248.87 146.57 247.15 147.02C245.49 147.46 244.4 148.81 244.34 150.56C244.3 151.64 244.611 152.64 245.171 153.56C247.481 157.34 249.8 161.12 252.12 164.9C253.04 166.4 252.971 166.71 251.391 167.5C249.091 168.64 246.62 169.34 244.09 169.58C239.33 170.03 234.59 170.06 230.23 167.63C227.6 166.17 226.27 163.95 226.29 160.85C226.35 152.15 226.311 143.45 226.311 134.75H226.321Z" fill="#FBD174"/>
<path d="M4.35057 134.36C4.35057 125.75 4.37057 117.13 4.33057 108.52C4.33057 106.93 4.91057 105.85 6.27057 105.09C8.90057 103.61 11.8006 103.12 14.7106 102.83C18.3206 102.46 21.8706 102.88 25.3106 104.22C26.9006 104.84 27.6906 106.09 28.5406 107.34C31.9506 112.33 35.1006 117.48 38.1006 122.72C39.3806 124.96 40.2306 125.49 42.5106 124.59C44.4306 123.83 45.1006 121.52 44.1206 119.44C42.4706 115.95 40.3206 112.74 38.4406 109.38C38.2706 109.07 38.0706 108.78 37.9106 108.48C37.0806 106.95 37.2906 106.25 38.8106 105.41C41.3806 103.99 44.1806 103.21 47.0606 102.9C50.8306 102.48 54.6106 102.64 58.2106 104.04C62.1206 105.56 63.8506 108.58 63.8506 112.66C63.8506 129.36 63.8606 146.06 63.8506 162.76C63.8506 165.64 62.4306 167.7 59.6006 168.57C53.6806 170.39 47.7706 170.2 41.9406 168.03C40.2606 167.41 39.6006 165.84 38.6906 164.57C35.1106 159.54 31.9306 154.24 28.8206 148.91C27.7006 146.99 26.7406 146.53 25.0106 147.15C23.4006 147.72 22.4306 149.52 22.6106 151.26C22.8006 153.2 23.9906 154.64 24.9106 156.2C26.7206 159.24 28.6206 162.23 30.5106 165.22C31.1706 166.26 30.8906 166.92 29.8606 167.43C27.5206 168.58 25.0406 169.39 22.4706 169.62C18.1406 170 13.8306 170.06 9.66057 168.33C5.92057 166.77 4.35057 164.02 4.35057 160.12C4.37057 151.55 4.35057 142.98 4.35057 134.41V134.36Z" fill="#ED78AD"/>
<path d="M328.171 102.73C333.471 102.79 338.68 103.4 343.49 105.86C347.37 107.84 350.11 110.7 351.16 115.15C354.65 129.9 358.28 144.62 361.85 159.35C362.11 160.41 362.22 161.54 362.62 162.54C363.15 163.85 362.66 164.62 361.69 165.42C358.44 168.08 354.65 169.36 350.55 169.67C347.05 169.93 343.53 169.95 340.11 168.86C335.35 167.35 333.24 164.4 333.31 159.42C333.32 158.59 333.96 158.81 334.32 158.73C336.38 158.25 338.41 157.67 340.16 156.43C342.47 154.8 342.74 152.16 340.85 150.35C339.92 149.46 338.93 149.43 337.84 150.02C331.49 153.46 325.14 153.54 318.78 150.04C317.42 149.29 316.23 149.56 315.37 150.85C313.93 153.01 314.72 155.62 317.26 157.08C319.32 158.26 321.581 158.78 323.891 159.08C324.811 159.2 324.98 159.56 325.05 160.39C325.16 161.74 325.401 163.09 325.701 164.41C325.901 165.3 325.74 165.87 324.93 166.4C322.07 168.26 318.89 169.28 315.56 169.63C310.79 170.13 306.081 169.72 301.671 167.58C300.771 167.14 299.9 166.6 299.09 166C296.33 163.96 295.4 161.25 296.15 157.89C299.81 141.56 303.44 125.23 307.07 108.9C307.26 108.06 307.66 107.55 308.44 107.15C313.03 104.79 317.94 103.58 323.04 103C324.74 102.81 326.451 102.66 328.171 102.74V102.73ZM327.391 122.23C324.761 122.23 323.57 123.41 323.98 125.8C324.54 129.12 325.21 132.41 325.83 135.72C326.12 137.3 327.241 138.01 328.671 138.23C330.241 138.47 331.73 138.19 332.85 136.91C333.29 136.4 333.24 135.75 333.16 135.15C333.02 134.11 332.85 133.07 332.62 132.05C332.05 129.5 331.95 126.84 330.82 124.43C330.14 122.96 328.991 122.25 327.391 122.24V122.23Z" fill="#EDB4B0"/>
<path d="M215.911 136.65C215.961 143.01 215.01 149.14 212.09 154.89C208.56 161.83 203.101 166.5 195.661 168.73C186.311 171.52 177.02 171.37 168.01 167.38C160.16 163.9 154.821 157.99 152.241 149.8C149.111 139.86 149.101 129.86 153.221 120.2C157.631 109.84 165.851 104.21 176.851 102.49C183.691 101.42 190.431 101.89 196.891 104.51C206.601 108.45 212.231 115.86 214.761 125.83C215.661 129.39 215.971 133 215.901 136.66L215.911 136.65ZM187.571 136.13C187.571 133.45 187.611 130.78 187.551 128.1C187.521 126.87 187.28 125.66 186.79 124.51C186.02 122.69 184.101 121.73 182.101 122.32C180.421 122.82 179.42 123.63 179.65 125.92C180.15 130.86 180.331 135.81 180.021 140.77C179.891 142.91 179.79 145.06 179.65 147.21C179.58 148.25 180.031 148.95 180.891 149.49C183.681 151.21 186.691 149.73 187.271 146.24C187.821 142.9 187.741 139.51 187.561 136.13H187.571Z" fill="#D8C1DD"/>
<path d="M139.87 136.39C139.81 142 139.18 147.49 136.98 152.73C133.57 160.83 127.761 166.33 119.311 168.81C110.501 171.39 101.701 171.33 93.1106 167.89C83.8306 164.17 77.9206 157.31 75.4906 147.65C73.2206 138.64 73.2706 129.6 76.8006 120.89C81.1806 110.09 89.5006 104.22 100.871 102.45C106.591 101.56 112.271 101.78 117.811 103.46C129.291 106.93 136.011 114.86 138.781 126.34C139.581 129.63 139.921 132.99 139.861 136.39H139.87ZM111.571 136.35C111.571 134.15 111.641 131.95 111.551 129.76C111.481 127.93 111.401 126.06 110.581 124.36C109.721 122.57 107.751 121.76 105.791 122.36C103.951 122.93 103.271 124.08 103.531 126.23C103.831 128.67 104.001 131.12 103.991 133.58C103.971 137.93 104.061 142.27 103.511 146.6C103.281 148.41 104.021 149.38 105.751 149.96C108.261 150.79 110.461 149.43 111.081 146.57C111.811 143.19 111.601 139.75 111.571 136.33V136.35Z" fill="#B0E0F6"/>
<path d="M327.391 122.23C328.991 122.25 330.13 122.95 330.82 124.42C331.94 126.84 332.05 129.5 332.62 132.04C332.85 133.06 333.02 134.1 333.16 135.14C333.24 135.74 333.29 136.4 332.85 136.9C331.73 138.18 330.241 138.46 328.671 138.22C327.241 138 326.12 137.29 325.83 135.71C325.21 132.4 324.54 129.11 323.98 125.79C323.58 123.4 324.771 122.22 327.391 122.22V122.23Z" fill="white"/>
<path d="M187.571 136.13C187.751 139.51 187.831 142.9 187.281 146.24C186.701 149.73 183.7 151.21 180.9 149.49C180.03 148.96 179.591 148.25 179.661 147.21C179.801 145.07 179.901 142.92 180.031 140.77C180.331 135.81 180.151 130.85 179.661 125.92C179.431 123.63 180.441 122.82 182.111 122.32C184.111 121.72 186.031 122.69 186.801 124.51C187.291 125.65 187.531 126.87 187.561 128.1C187.621 130.78 187.581 133.45 187.581 136.13H187.571Z" fill="white"/>
<path d="M111.571 136.35C111.591 139.77 111.811 143.21 111.081 146.59C110.461 149.44 108.261 150.81 105.751 149.98C104.011 149.4 103.281 148.43 103.511 146.62C104.071 142.29 103.971 137.94 103.991 133.6C104.001 131.14 103.831 128.69 103.531 126.25C103.271 124.09 103.941 122.94 105.791 122.38C107.761 121.78 109.731 122.58 110.581 124.38C111.401 126.09 111.481 127.95 111.551 129.78C111.641 131.97 111.571 134.17 111.571 136.37V136.35Z" fill="white"/>
</g>
</g>
<defs>
<clipPath id="clip0_44_245">
<rect width="368" height="242" fill="white"/>
</clipPath>
</defs>
</svg>
