<svg height="512" viewBox="0 0 60 45" width="512" xmlns="http://www.w3.org/2000/svg"><g id="Page-1" fill="none" fill-rule="evenodd"><g id="075---Cinnamon-Roll" fill-rule="nonzero"><path id="Shape" d="m59 28c.0055828 4.2451728-1.6783338 8.31808-4.6801269 11.3198731s-7.0747003 4.6857097-11.3198731 4.6801269h-13.5c-5.2467051 0-9.5-4.2532949-9.5-9.5s4.2532949-9.5 9.5-9.5h.5c12.7 0 23-6.27 23-14-.0652198-1.59592175-.7335286-3.10765756-1.87-4.23.92.89 7.87 8.05 7.87 21.23z" fill="#ff9401"/><path id="Shape" d="m51.13 6.77c1.1364714 1.12234244 1.8047802 2.63407825 1.87 4.23-.0024274.7859443-.110735 1.5679786-.322 2.325 2.2344871 4.566413 3.3720099 9.5914423 3.322 14.675.0055828 4.2451728-1.6783338 8.31808-4.6801269 11.3198731s-7.0747003 4.6857097-11.3198731 4.6801407l3-.0000138c4.2451728.0055828 8.31808-1.6783338 11.3198731-4.6801269s4.6857097-7.0747003 4.6801269-11.3198731c0-13.18-6.95-20.34-7.87-21.23z" fill="#f17c00"/><path id="Shape" d="m22.78 27.78c-2.71908 2.7170671-3.5328334 6.8049446-2.0615504 10.3561664s4.9376142 5.865846 8.7815504 5.8638336h-12.5c-4.2451728.0055828-8.31807997-1.6783338-11.31987307-4.6801269-3.00179311-3.0017931-4.68570972-7.0747003-4.68012693-11.3198731 0-13.18 6.95-20.34 7.87-21.23-1.13647142 1.12234244-1.80478016 2.63407825-1.87 4.23 0 7.73 10.3 14 23 14h-.5c-2.5205416-.0037433-4.9387614.9966512-6.72 2.78z" fill="#f17c00"/><path id="Shape" d="m53 11c0 7.73-10.3 14-23 14s-23-6.27-23-14c.06521984-1.59592175.73352858-3.10765756 1.87-4.23l.07-.07.03-.03c2.8-2.97 9.03-5.67 21.03-5.67s18.23 2.7 21.03 5.67c.02.01.03.02.03.03l.07.07c1.1364714 1.12234244 1.8047802 2.63407825 1.87 4.23z" fill="#ffdcae"/><path id="Shape" d="m51.13 6.77-.07-.07c0-.01-.01-.02-.03-.03-2.8-2.97-9.03-5.67-21.03-5.67-.515 0-1.006.012-1.5.021 11.015.218 16.85 2.807 19.53 5.649.02.01.03.02.03.03l.07.07c1.1364714 1.12234244 1.8047802 2.63407825 1.87 4.23 0 7.423-9.5 13.5-21.5 13.967.5.02 1 .033 1.5.033 12.7 0 23-6.27 23-14-.0652198-1.59592175-.7335286-3.10765756-1.87-4.23z" fill="#dbc098"/><path id="Shape" d="m30 0c-12.368 0-19.159 2.889-22.136 6.36-1.716 1.772-7.864 9.004-7.864 21.64.01047101 9.3845001 7.61549991 16.989529 17 17h26c9.3845001-.010471 16.989529-7.6154999 17-17 0-12.518-6.037-19.736-7.819-21.595-2.955-3.491-9.758-6.405-22.181-6.405zm0 12c3.991 0 7-1.72 7-4s-3.009-4-7-4c-.5522847 0-1 .44771525-1 1s.4477153 1 1 1c3.052 0 5 1.185 5 2s-1.948 2-5 2c-5.724 0-10-2.111-10-4s4.276-4 10-4c7.589 0 14 3.206 14 7s-6.411 7-14 7c-9.122 0-16-3.869-16-9 .0059963-.96879449.2487062-1.92143949.707-2.775 1.6173312-.60690906 3.2860857-1.06677041 4.986-1.374-1.009729.7411749-1.6316466 1.89794895-1.693 3.149 0 3.421 5.159 6 12 6zm-17.824-6.573c-.1113651.51708871-.1703298 1.04408528-.176 1.573 0 6.374 7.57 11 18 11 8.972 0 16-3.953 16-9 0-2.16-1.3-4.116-3.471-5.651 3.918 1.021 9.471 3.658 9.471 7.651 0 7.168-9.869 13-22 13s-22-5.832-22-13c0-2.366 2.129-4.38 4.176-5.573zm4.824 37.573c-8.28038757-.0093685-14.99063148-6.7196124-15-15-.0608613-5.5373656 1.34803821-10.9918047 4.083-15.807.818 6.46 8.205 11.781 17.979 13.342-3.0133959 1.8174119-4.9119905 5.0273054-5.0533225 8.5434917-.1413319 3.5161863 1.4935127 6.8681052 4.3513225 8.9215083zm41-15c-.0093685 8.2803876-6.7196124 14.9906315-15 15h-13.5c-4.6944203-.0000001-8.4999998-3.8055797-8.4999998-8.5s3.8055795-8.4999999 8.4999998-8.5h.5c12.592 0 22.951-6.093 23.925-13.81 2.7292535 4.8182403 4.1351553 10.2727944 4.075 15.81z" fill="#000"/></g></g></svg>