<svg width="686" height="854" viewBox="0 0 686 854" fill="none" xmlns="http://www.w3.org/2000/svg">
<circle cx="343" cy="510" r="343" fill="#B0E0F6"/>
<path d="M343.27 853.267C468.49 853.267 570 815.053 570 767.913C570 720.774 468.49 682.56 343.27 682.56C218.051 682.56 116.54 720.774 116.54 767.913C116.54 815.053 218.051 853.267 343.27 853.267Z" fill="#C15E59"/>
<path d="M568.487 264.562H115.979L187.697 779.13H187.759C187.759 779.349 187.697 779.567 187.697 779.786C187.697 801.877 256.887 819.787 342.225 819.787C427.563 819.787 496.753 801.877 496.753 779.786C496.753 779.567 496.706 779.349 496.691 779.13H496.753L568.471 264.562H568.487Z" fill="#DB864F"/>
<path d="M216.933 264.562H115.979L187.697 779.13H187.759C187.759 779.349 187.697 779.567 187.697 779.786C187.697 792.032 208.992 802.984 242.503 810.332L216.933 264.577V264.562Z" fill="#C16F40"/>
<path d="M568.486 264.562H473.648L437.235 811.315C473.46 803.998 496.768 792.594 496.768 779.786C496.768 779.567 496.722 779.349 496.706 779.13H496.768L568.486 264.562Z" fill="#C16F40"/>
<path d="M342.241 324.095C467.201 324.095 568.502 297.874 568.502 265.529C568.502 233.183 467.201 206.962 342.241 206.962C217.28 206.962 115.979 233.183 115.979 265.529C115.979 297.874 217.28 324.095 342.241 324.095Z" fill="#FDCD78"/>
<path d="M579.984 258.619H104.481L123.015 329.151H123.108C123.093 329.463 123.015 329.775 123.015 330.087C123.015 361.429 217.042 400.962 338.122 400.962C459.201 400.962 561.466 361.429 561.466 330.087C561.466 329.775 561.388 329.463 561.372 329.151H561.466L580 258.619H579.984Z" fill="#B43E0C"/>
<path d="M342.24 321.162C473.551 321.162 580 293.614 580 259.632C580 225.65 473.551 198.102 342.24 198.102C210.929 198.102 104.481 225.65 104.481 259.632C104.481 293.614 210.929 321.162 342.24 321.162Z" fill="#D84012"/>
<path d="M342.241 305.483C460.757 305.483 556.833 283.195 556.833 255.7C556.833 228.206 460.757 205.917 342.241 205.917C223.725 205.917 127.648 228.206 127.648 255.7C127.648 283.195 223.725 305.483 342.241 305.483Z" fill="#4D2B05"/>
<path d="M183.531 283.72C183.531 283.72 398.248 400.588 561.326 245.67C561.326 245.67 603.449 147.82 475.707 184.513C347.966 221.207 36.7567 141.033 183.531 283.72Z" fill="#FDF2D6"/>
<path d="M549.718 195.138C545.101 181.752 535.397 169.333 504.366 177.181C418.233 198.975 255.748 196.869 175.262 207.384C179.506 216.199 158.101 201.596 169.521 227.151C178.211 246.605 194.327 261.723 213.969 269.96C274.657 295.452 424.021 339.135 543.899 218.773C543.899 218.773 548.236 208.102 549.718 195.122V195.138Z" fill="#FFCC86"/>
<path d="M230.443 263.282C286.857 287.745 413.319 324.47 520.03 225.372C533.915 212.485 541.871 194.076 540.857 175.168C539.593 151.485 524.289 128.099 459.279 149.192C355.642 182.828 115.588 118.255 176.339 217.166C189.023 237.822 208.196 253.641 230.428 263.282H230.443Z" fill="#FDF2D6"/>
<path d="M263.596 230.396C304.845 248.274 397.312 275.139 475.333 202.673C485.489 193.25 491.308 179.802 490.559 165.963C489.639 148.646 478.453 131.548 430.917 146.977C355.142 171.564 179.615 124.355 224.047 196.682C233.314 211.784 247.339 223.36 263.596 230.396Z" fill="#FFCC86"/>
<path d="M299.4 213.967C338.73 234.81 403.552 249.897 460.73 173.576C473.804 156.134 480.949 134.714 479.623 112.951C478.235 90.1265 467.782 68.9871 427.781 89.3777C363.27 122.249 215.778 61.327 245.217 150.861C254.188 178.163 274.001 200.519 299.4 213.967Z" fill="#FDF2D6"/>
<path d="M426.533 89.9712C394.472 105.479 342.973 98.9262 302.411 98.8794C297.2 103.076 295.515 110.097 299.384 121.828C304.345 136.93 315.313 149.302 329.354 156.744C351.117 168.273 386.968 176.619 418.607 134.387C425.831 124.73 429.793 112.889 429.06 100.845C428.826 96.8981 428.093 93.0602 426.533 89.9712Z" fill="#FFCC86"/>
<path d="M364.488 144.341C392.318 144.341 414.879 121.78 414.879 93.9494C414.879 66.1191 392.318 43.5581 364.488 43.5581C336.657 43.5581 314.096 66.1191 314.096 93.9494C314.096 121.78 336.657 144.341 364.488 144.341Z" fill="#D85021"/>
<path d="M397.187 55.6641C399.715 61.6705 401.119 68.2697 401.119 75.1966C401.119 103.029 378.56 125.588 350.727 125.588C338.231 125.588 326.827 121.017 318.028 113.497C325.656 131.625 343.582 144.356 364.487 144.356C392.32 144.356 414.879 121.797 414.879 93.9646C414.879 78.6288 407.999 64.9155 397.187 55.6797V55.6641Z" fill="#B43E0C"/>
<path d="M366.11 55.9761C370.702 55.9761 374.425 53.8457 374.425 51.2178C374.425 48.5898 370.702 46.4595 366.11 46.4595C361.518 46.4595 357.795 48.5898 357.795 51.2178C357.795 53.8457 361.518 55.9761 366.11 55.9761Z" fill="#FFC08D"/>
<path d="M332.833 323.191C333.114 323.238 333.379 323.285 333.66 323.332C345.002 325.36 355.657 333.816 355.548 346.125C355.486 352.864 352.709 359.136 350.759 365.47C348.231 373.676 345.766 381.945 345.049 390.557C344.315 399.402 345.875 408.576 350.072 416.454C361.913 438.608 395.206 423.007 399.293 402.897C404.239 378.528 376.547 356.359 387.421 332.458C389.293 328.34 392.429 324.346 391.914 319.853C391.384 315.172 387.093 311.896 382.897 309.774C379.855 308.23 376.563 306.982 373.146 307.044C368.887 307.122 364.971 309.228 360.931 310.554C351.445 313.675 341.133 312.551 331.242 314.002C328.995 314.33 326.359 315.157 325.781 317.357C325.313 319.166 326.608 321.038 328.246 321.943C329.65 322.708 331.242 322.957 332.833 323.207V323.191Z" fill="#FDF2D6"/>
<path d="M192.252 280.179C194.717 284.547 206.293 282.691 218.088 276.029C229.898 269.367 237.464 260.428 234.999 256.06C232.534 251.691 220.958 253.548 209.164 260.21C197.354 266.871 189.787 275.811 192.252 280.179Z" fill="#FFCC86"/>
<path d="M197.463 276.575L52.3418 19.4074L83.6687 1.73145L228.758 258.821C228.758 258.821 228.789 258.852 228.789 258.868C228.789 258.883 228.789 258.899 228.805 258.93L229.023 259.32L228.977 259.351C230.053 262.69 224.64 268.868 216.387 273.517C208.134 278.166 200.052 279.617 197.759 276.965L197.697 276.996L197.447 276.559L197.463 276.575Z" fill="#4D2B05"/>
<path d="M52.3418 19.4078L62.9817 13.4014L211.207 276.029C204.982 278.588 199.584 279.04 197.775 276.95L197.712 276.981L197.463 276.544L52.3418 19.4078Z" fill="#351C04"/>
<path d="M52.3419 19.423C54.1516 22.6212 62.6386 21.2639 71.2816 16.3808C79.9402 11.4977 85.4785 4.94522 83.6844 1.73141C81.8747 -1.4668 73.3877 -0.109513 64.7447 4.77361C56.0862 9.65673 50.5322 16.2248 52.3419 19.423Z" fill="#663605"/>
<path d="M57.771 16.3655C58.9879 18.5184 64.6979 17.5979 70.517 14.3217C76.3362 11.0299 80.0805 6.61481 78.8636 4.46186C77.6467 2.30892 71.9367 3.22938 66.1175 6.5056C60.2984 9.79742 56.5541 14.2125 57.771 16.3655Z" fill="#351C04"/>
<path d="M218.275 290.959C218.524 295.967 229.71 299.477 243.252 298.775C256.794 298.073 267.558 293.455 267.293 288.447C267.043 283.439 255.857 279.929 242.316 280.631C228.774 281.333 218.009 285.951 218.275 290.959Z" fill="#FFCC86"/>
<path d="M224.562 290.054L209.491 67.3653L245.42 65.5244L260.491 288.167C260.491 288.167 260.491 288.214 260.491 288.229C260.491 288.245 260.491 288.276 260.491 288.292V288.744H260.46C259.929 292.223 252.331 295.328 242.877 295.811C233.423 296.295 225.544 293.986 224.655 290.585H224.593L224.562 290.101V290.054Z" fill="#4D2B05"/>
<path d="M209.491 67.3501L221.691 66.7261L237.089 295.718C230.381 295.219 225.357 293.222 224.655 290.554H224.593L224.562 290.07L209.491 67.3813V67.3501Z" fill="#351C04"/>
<path d="M227.803 73.0739C237.724 72.5661 245.615 69.1758 245.427 65.5015C245.239 61.8272 237.043 59.2602 227.122 59.768C217.2 60.2758 209.31 63.6661 209.498 67.3404C209.686 71.0147 217.881 73.5817 227.803 73.0739Z" fill="#663605"/>
<path d="M215.716 67.0373C215.841 69.5023 221.364 71.234 228.041 70.8908C234.718 70.5475 240.038 68.2698 239.898 65.7892C239.757 63.3087 234.25 61.5926 227.573 61.9358C220.896 62.279 215.576 64.5567 215.716 67.0373Z" fill="#351C04"/>
</svg>
