<svg width="217" height="63" viewBox="0 0 217 63" fill="none" xmlns="http://www.w3.org/2000/svg">
<path d="M216 11C216.091 11.0183 215.909 10.9837 216 11C215.925 10.8146 216.237 10.1202 216 9.99999L198 0.99999C197.745 0.867593 197.223 0.938884 197 0.99999C196.757 1.0448 196.127 0.835004 196 0.99999C195.629 1.02443 196.111 1.52336 196 1.99999C191.993 19.5252 181.043 39.0101 161 40C152.349 40.4257 144.786 37.3103 140 30C135.902 23.7387 133.485 15.2755 128 9.99999C125.389 7.4865 121.62 6.332 118 5.99999C113.651 5.60076 109.577 6.61482 106 8.99999C98.007 14.3244 93.9718 23.5961 86.9999 30C83.7023 33.0268 79.5047 35.2688 74.9999 36C70.4181 36.7434 66.336 35.1103 62.9999 32C56.4432 25.8812 53.668 17.0556 46.9999 11C43.9291 8.20541 39.2475 5.99184 34.9999 5.99999C30.254 6.01017 26.4676 9.04042 22.9999 12C15.5985 18.3183 9.42571 26.3087 4.99988 35C3.91621 37.1306 2.88505 38.7778 1.99988 41C2.00798 40.9857 1.9938 41.0142 1.99988 41C1.49957 41.9268 1.35233 42.9816 0.999879 44C0.888474 44.3279 0.849988 44.7902 0.999879 45C0.78517 45.4562 1.52185 45.7311 1.99988 46C7.14073 48.8883 11.859 52.1117 16.9999 55C16.8723 54.9898 17.1275 55.0713 16.9999 55C17.2895 55.3035 17.6191 55.1589 17.9999 55C18.3706 55.0876 18.7791 55.4562 18.9999 55C19.1538 54.6782 19.8318 54.3137 19.9999 54C20.1721 53.8269 19.848 53.3809 19.9999 53C19.9918 53.0346 20.0141 52.9694 19.9999 53C21.6548 50.1239 24.183 47.7274 25.9999 45C25.9877 45.0204 26.0141 44.9837 25.9999 45C26.6298 44.4174 27.295 43.5011 27.9999 43C31.6054 40.4295 36.8779 38.8144 40.9999 41C44.7066 42.9656 46.8481 47.3093 49.9999 50C52.6371 52.2487 55.8218 53.6373 58.9999 55C65.6194 57.8475 72.8983 59.1467 79.9999 58C87.4033 56.8023 93.4154 52.8844 98.9999 48C102.038 45.3439 105.291 42.6906 109 41C112.773 39.2748 116.431 39.8959 120 42C123.31 43.9513 126.379 46.236 129 49C131.576 51.7172 133.814 55.0059 137 57C150.022 65.1312 166.921 63.07 180 56C196.897 46.8708 207.776 29.796 216 13C216.889 12.7291 217.09 11.2037 216 11Z" fill="#FF6D41"/>
</svg>
