<svg width="145" height="18" viewBox="0 0 145 18" fill="none" xmlns="http://www.w3.org/2000/svg">
<path d="M137.51 4.44635C134.71 3.54635 132.29 5.64635 130.12 7.65635C127.43 10.1564 124.72 13.1764 121.29 14.1264C117.38 15.2064 113.77 14.4064 110.12 12.6064C106.75 10.9464 103.16 8.69635 99.39 9.35635C96.13 9.92635 93.32 12.3364 90.44 14.0364C86.94 16.1064 83.09 17.7164 79.14 16.8464C75.89 16.1264 73.09 13.7364 70.31 11.7464C68.74 10.6264 67.15 9.46635 65.35 8.95635C64.17 8.61635 63.23 8.69635 62.14 9.14635C61.28 9.49635 60.14 10.3864 59.2 11.0564C58.01 11.9164 56.79 12.6864 55.48 13.2764C52.12 14.7864 48.81 14.5764 45.56 12.8264C42.81 11.3364 40.42 8.90635 37.56 7.71635C35.07 6.67635 32.62 7.18635 30.7 9.08635C28.84 10.9264 27.3 13.3264 25.03 14.5164C22.08 16.0664 18.75 15.3464 16.02 13.5064C13.55 11.8464 11.57 9.29635 9.01001 7.81635C6.77001 6.52635 4.38 7.16635 2.45 8.91635C1.65 9.63635 0.84 10.4964 0 11.3664V7.10635C2.06 5.10635 4.39001 3.55635 7.18001 3.88635C10.11 4.23635 12.36 6.37635 14.62 8.42635C16.83 10.4264 19.3 12.4164 22.22 12.1064C24.5 11.8664 26.02 9.78635 27.68 7.92635C29.7 5.64635 32 3.92635 34.88 3.88635C38.06 3.83635 40.86 5.86635 43.48 7.74635C45.98 9.53635 48.66 11.4564 51.7 11.0664C54.52 10.7064 56.79 8.89635 59.17 7.25635C61.57 5.60635 64.07 5.02635 66.76 6.04635C70.27 7.37635 73.16 10.2664 76.4 12.2564C77.62 12.9964 78.92 13.5964 80.29 13.7964C82.03 14.0464 83.77 13.6564 85.42 13.0264C88.86 11.7164 91.8 9.21635 95.09 7.53635C98.57 5.75635 102.12 5.60635 105.72 7.04635C109.13 8.41635 112.4 10.8264 116.02 11.3364C117.82 11.5864 119.75 11.3764 121.47 10.6764C123.01 10.0464 124.4 8.83635 125.69 7.67635C128.23 5.37635 130.68 2.46635 133.81 1.32635C137.9 -0.17365 141.25 2.68635 144.57 5.39635V9.31635C142.34 7.57635 140.14 5.29635 137.51 4.44635Z" fill="#B0E0F6"/>
</svg>
